P3
50 50
255
240 223 244 164 196 215 166 139 221 213 87 81 36 69 31 108 3 106 102 0 6 195 67 96 183 32 42 196 162 137 242 146 104 230 54 44 189 221 183 154 178 14 236 214 84 11 67 87 117 169 87 123 108 155 219 35 187 6 232 93 143 218 239 247 192 38 35 126 3 219 24 181 233 4 139 61 16 206 148 133 119 236 1 227 135 220 7 66 226 239 159 113 201 142 104 137 180 140 7 183 103 32 108 80 36 248 142 52 198 34 186 62 14 187 33 149 151 40 215 122 23 118 235 224 5 84 106 185 224 113 113 71 145 221 151 182 213 37 234 156 72 164 218 86 95 251 236 247 36 195 
113 59 58 92 28 63 176 134 248 144 247 105 215 137 71 111 63 28 148 41 184 220 206 146 51 45 142 31 36 178 226 149 237 28 242 9 91 162 143 84 51 135 189 10 16 4 121 79 33 14 120 217 234 70 108 29 116 250 60 152 172 31 46 153 59 32 163 151 194 50 235 245 185 168 0 201 173 121 24 206 135 145 167 114 215 19 143 75 13 204 228 185 235 18 83 38 50 246 189 244 40 168 234 226 81 234 171 254 99 196 204 235 85 115 93 44 135 236 120 148 184 92 78 163 110 161 202 160 151 135 148 191 48 126 161 129 104 77 127 204 17 75 183 102 190 20 146 69 0 10 
218 185 102 40 92 212 201 38 116 96 174 9 31 222 135 193 95 240 14 222 188 31 41 115 133 231 135 23 45 135 34 7 64 136 47 157 93 248 195 209 88 113 218 119 79 98 56 174 82 70 140 14 101 181 129 234 157 8 2 202 143 36 209 208 172 0 109 9 248 48 219 80 162 181 199 241 23 0 160 105 70 44 119 172 226 248 150 127 0 152 73 144 188 26 96 105 26 205 114 18 253 77 98 159 3 41 145 26 41 49 132 112 93 251 28 63 244 178 190 244 75 7 132 7 33 228 112 59 177 227 77 175 48 175 78 51 217 223 78 2 16 210 114 110 205 142 173 193 65 108 
182 140 115 58 147 149 31 4 208 208 231 30 127 23 205 206 75 166 173 153 169 190 107 27 44 56 170 217 250 235 69 176 119 185 234 10 78 9 14 30 218 245 60 89 13 10 39 88 176 213 241 89 147 92 117 191 148 31 152 142 10 222 62 129 151 41 139 229 50 154 3 12 143 64 102 156 74 141 244 250 98 229 84 245 65 201 180 214 232 77 100 242 43 163 115 194 204 254 167 254 152 170 11 40 234 113 196 52 254 185 47 97 158 131 86 224 76 11 182 52 88 26 38 131 189 153 69 137 151 236 136 48 150 147 88 129 4 28 181 2 213 228 99 116 103 186 84 179 197 10 
231 29 36 13 160 226 166 229 107 62 209 243 110 103 134 198 232 138 226 158 141 184 130 240 44 234 170 128 157 111 138 133 140 174 146 44 144 57 17 252 119 226 239 229 74 118 171 50 0 141 208 141 69 83 126 113 61 40 241 218 152 123 95 36 42 242 81 186 43 98 182 162 69 166 135 143 28 50 193 28 191 146 170 5 229 40 118 34 80 104 252 232 227 92 13 13 78 94 200 121 192 126 27 5 36 162 148 64 212 86 93 147 232 7 152 205 47 15 239 127 119 235 104 90 71 117 104 149 211 48 14 147 174 41 153 211 203 45 19 159 131 112 51 107 119 203 56 166 218 39 
38 81 19 142 172 90 3 20 240 214 68 254 105 242 40 2 197 243 48 217 147 179 73 198 31 193 145 87 103 108 127 141 189 146 27 105 236 30 125 220 244 193 219 94 180 3 96 121 246 144 82 137 68 156 79 99 93 225 186 196 77 57 82 10 203 109 116 184 140 241 148 128 179 111 222 103 114 63 224 105 207 51 242 19 207 66 118 44 35 49 240 112 106 66 122 54 176 238 238 60 224 130 188 147 242 155 250 100 218 218 205 169 13 192 189 220 2 51 8 37 100 249 149 207 59 15 5 235 254 243 39 222 117 228 113 103 127 107 204 89 69 153 2 83 89 191 47 91 243 56 
128 87 49 21 38 108 37 43 88 35 30 127 1 148 99 114 251 226 221 199 59 34 97 62 117 186 253 165 22 240 221 150 72 14 172 110 122 209 154 210 244 184 82 245 76 181 103 72 152 68 15 211 102 112 17 220 43 15 129 65 255 94 215 71 108 131 182 230 84 80 185 72 8 11 61 85 192 164 157 88 232 172 44 79 29 61 43 72 76 172 137 76 10 96 147 118 228 73 92 56 153 21 129 162 32 190 247 225 99 148 57 75 64 101 154 93 163 197 165 239 113 46 59 123 143 207 241 115 24 78 171 178 99 44 84 132 235 75 101 78 223 158 153 31 4 52 125 167 249 34 
150 107 81 210 230 224 161 216 83 185 38 254 107 137 43 191 13 22 10 114 100 233 17 253 9 21 49 134 188 43 168 82 150 249 36 124 217 197 84 44 127 122 43 234 4 86 170 17 108 180 132 208 158 149 205 167 170 255 45 102 42 213 184 192 207 221 60 168 162 145 213 33 11 0 12 15 86 182 33 194 106 165 146 8 58 95 175 228 94 220 74 136 178 2 72 129 223 133 41 130 22 254 163 33 254 175 49 84 101 82 22 208 247 168 216 49 8 136 21 102 100 95 239 22 97 55 151 65 188 193 195 210 191 102 244 190 22 37 18 123 119 41 75 110 209 36 159 217 172 180 
64 16 19 47 39 116 102 190 181 35 127 120 245 63 223 233 253 245 14 15 112 133 56 188 243 10 224 146 227 140 70 35 156 89 82 195 206 185 130 131 220 1 252 209 64 219 187 61 208 201 77 64 79 133 252 66 143 220 213 115 104 27 150 5 117 233 200 67 162 74 198 126 76 194 79 140 157 10 202 109 212 23 174 35 156 170 101 44 135 58 159 239 86 53 244 203 30 189 14 192 7 212 62 83 151 142 224 52 152 170 162 108 193 80 143 93 250 245 137 129 47 40 113 133 94 101 80 124 34 94 61 42 51 123 125 202 9 93 254 162 7 160 14 200 240 158 38 235 147 175 
108 194 216 221 72 54 67 152 178 101 247 239 143 42 107 13 244 116 106 242 22 114 147 37 58 131 195 96 110 86 16 219 24 232 184 96 30 251 249 208 97 240 192 240 26 43 253 14 159 104 0 182 218 147 219 20 23 158 117 133 244 133 96 12 109 25 109 139 20 102 91 117 86 27 102 112 70 99 126 230 203 126 156 165 18 119 186 41 21 47 174 9 180 15 21 33 40 130 172 60 232 7 178 62 35 24 174 105 123 44 79 71 171 235 236 189 98 166 230 119 213 148 128 137 163 150 170 203 24 86 8 1 94 186 63 129 210 238 234 77 26 58 148 197 37 129 130 136 39 104 
255 253 253 128 134 160 22 49 108 46 135 116 47 229 46 111 102 0 93 81 77 119 139 226 61 176 99 191 56 138 40 56 135 37 184 14 197 206 63 49 252 198 165 44 172 211 155 18 211 248 99 33 111 238 3 172 159 102 108 215 240 148 15 120 185 199 134 126 149 197 176 146 139 85 190 55 41 89 74 252 81 173 29 192 156 32 109 59 134 217 18 119 109 34 239 38 233 117 164 127 58 84 17 197 170 207 253 211 40 71 207 121 244 237 57 144 13 166 203 148 127 222 11 236 0 250 18 233 111 183 104 169 11 121 110 181 72 107 136 112 178 88 233 167 69 35 55 82 201 3 
230 73 225 241 53 225 235 72 202 90 255 51 3 10 172 114 192 245 221 72 101 144 160 79 55 229 114 110 56 59 113 30 132 82 16 186 51 251 2 254 86 1 49 89 11 221 203 203 210 169 20 56 57 180 135 112 154 249 222 210 52 80 240 185 162 0 115 214 252 117 212 82 118 5 171 129 226 119 77 181 32 97 237 89 21 116 201 175 109 167 129 161 247 114 90 154 114 205 112 110 66 68 192 184 73 108 58 43 227 135 224 3 232 205 92 253 65 37 173 174 204 46 80 196 160 170 94 19 120 206 129 186 18 66 115 91 174 173 134 145 52 103 148 28 52 240 25 118 21 198 
36 225 245 116 165 149 31 3 168 151 209 42 81 227 108 196 62 26 113 197 171 165 44 63 193 96 47 219 214 68 161 251 37 150 111 203 44 142 206 212 37 160 254 119 131 106 59 194 132 173 135 47 82 179 110 20 19 157 239 234 225 144 229 7 39 84 210 83 227 160 39 8 64 38 127 196 144 187 134 21 104 13 68 186 192 179 206 211 80 189 189 50 78 162 57 117 247 11 200 218 171 239 226 236 21 98 176 166 29 54 187 133 67 255 63 3 178 14 214 3 203 148 53 25 54 110 142 45 121 86 7 36 70 234 16 91 76 192 1 105 246 188 238 57 188 45 60 110 59 19 
113 7 167 166 32 221 20 175 11 141 5 18 178 75 252 194 167 72 131 168 177 121 101 159 179 33 205 239 143 8 2 1 15 169 167 48 135 188 223 146 73 228 164 251 48 161 190 215 233 65 127 155 186 228 58 109 5 7 93 149 16 95 150 31 9 61 79 144 249 46 34 67 19 198 62 67 103 252 26 81 61 153 236 248 126 38 101 131 46 194 24 62 34 174 93 43 236 173 187 229 219 221 40 238 163 103 49 11 99 75 92 161 229 72 153 99 110 254 230 156 193 255 218 227 173 56 14 153 229 201 127 192 166 167 175 73 14 224 84 114 44 176 19 17 248 172 116 103 170 90 
3 107 89 222 78 7 22 92 160 251 37 31 187 203 199 106 21 213 75 105 71 119 26 90 136 18 6 252 121 177 86 125 28 176 91 107 183 113 199 87 108 237 119 39 184 62 146 205 19 221 55 91 84 81 181 220 99 188 216 221 109 46 90 137 222 181 244 149 38 188 237 146 169 100 185 97 162 75 47 181 40 102 16 124 183 198 88 26 130 48 247 239 95 81 120 61 6 109 211 44 41 192 190 210 36 120 51 198 195 98 123 236 200 140 104 127 82 193 154 212 241 145 195 80 227 59 142 233 168 97 22 209 33 212 163 69 76 215 11 16 57 134 252 2 18 100 129 100 37 27 
56 23 173 251 103 144 55 245 121 223 86 143 177 119 100 84 188 176 43 199 192 101 78 188 103 96 33 232 197 70 4 253 93 177 249 197 65 48 186 186 15 17 74 192 136 174 21 69 94 64 12 31 165 90 219 12 187 252 245 128 67 249 125 160 170 118 101 235 166 32 165 182 49 239 118 185 157 139 254 252 204 11 27 113 101 246 126 32 243 115 160 54 108 30 214 22 148 60 1 59 92 166 241 141 150 103 70 51 243 69 47 191 80 74 48 181 65 174 214 52 33 118 106 141 148 64 163 41 124 164 100 216 75 85 101 225 188 172 20 175 241 68 110 65 142 159 246 207 77 204 
3 111 67 109 252 215 174 160 0 42 68 100 3 143 185 104 112 118 20 133 37 5 201 148 70 87 51 61 39 128 9 42 239 76 152 236 36 70 140 36 112 208 137 115 96 66 220 208 184 240 85 222 246 30 114 60 118 165 121 157 37 131 199 21 207 95 1 243 165 141 24 22 93 161 137 189 227 101 142 156 86 227 122 76 2 236 136 120 145 2 21 182 133 220 203 84 60 204 72 225 89 96 247 183 1 129 116 228 230 2 128 60 230 250 136 232 230 17 96 119 19 117 46 152 81 249 236 141 198 52 111 31 148 102 214 149 231 75 122 206 77 250 10 51 245 147 27 219 164 123 
83 183 240 129 79 66 122 59 207 64 112 62 96 4 165 54 154 140 129 20 90 207 14 101 2 3 248 30 223 156 153 50 83 138 179 162 204 45 221 155 110 77 218 206 82 127 4 236 11 134 0 102 85 14 203 87 18 195 117 241 95 15 35 178 153 214 84 101 3 49 0 113 127 218 63 209 89 68 189 101 202 189 203 31 203 150 118 221 89 236 206 184 251 241 106 148 199 190 249 203 239 249 60 110 212 124 63 45 192 252 146 138 185 93 169 133 243 31 98 76 11 49 4 6 34 110 154 234 44 147 181 28 141 241 138 97 109 202 142 45 198 33 183 128 126 96 5 114 128 103 
190 139 152 195 146 187 49 44 165 94 192 90 122 77 75 4 174 185 206 60 230 149 93 158 21 220 254 26 78 126 129 12 10 26 207 156 213 1 200 122 95 136 212 217 213 31 221 131 216 172 192 191 65 29 93 86 249 91 112 71 218 241 84 228 11 35 128 224 36 72 90 131 209 46 92 166 78 58 42 38 230 234 229 39 7 66 125 1 158 237 72 120 222 156 92 234 192 220 202 228 36 37 104 245 83 196 156 161 254 198 200 228 176 173 11 183 240 136 184 142 117 1 6 84 157 98 62 93 62 8 66 98 45 170 88 129 110 244 34 109 186 234 81 106 152 93 33 136 229 218 
22 91 219 28 175 120 126 237 214 188 245 24 30 35 194 118 164 48 106 198 157 36 177 239 142 73 76 176 209 49 138 231 140 101 3 59 221 129 40 179 61 30 203 91 65 141 210 229 190 60 171 91 97 92 74 239 165 150 159 118 200 41 93 84 142 96 144 108 225 184 31 30 214 235 122 23 120 76 252 54 136 168 146 233 4 220 217 170 115 120 32 59 162 126 143 48 222 31 156 192 216 188 222 174 167 88 198 31 164 194 86 45 106 232 22 111 196 239 25 55 104 57 114 10 183 2 58 150 33 215 86 249 147 52 168 58 141 110 89 49 48 175 94 155 151 117 10 92 100 35 
147 204 92 6 214 20 8 17 170 41 232 0 35 123 52 203 181 193 57 14 243 105 190 81 4 85 198 14 177 43 49 69 247 142 75 206 162 83 223 76 124 199 76 159 66 128 106 247 66 163 5 53 13 195 134 17 25 77 32 202 120 81 15 111 223 90 61 129 173 28 205 42 227 25 201 37 154 52 28 220 215 34 17 228 229 151 246 254 228 22 201 92 103 216 204 71 51 9 200 224 38 150 10 9 175 212 47 73 8 75 37 223 109 54 196 83 206 186 81 178 208 26 15 55 243 219 126 38 228 71 6 10 221 17 20 140 229 67 214 237 142 251 204 252 50 144 79 0 74 160 
178 26 187 193 82 174 156 208 212 129 23 218 139 244 235 159 129 208 226 87 189 113 82 138 109 132 26 188 132 101 92 55 127 23 248 209 197 149 162 153 22 185 116 161 174 95 65 47 48 35 134 237 148 216 119 1 93 146 189 225 247 26 24 118 49 17 72 247 166 234 144 188 163 4 93 81 100 158 128 148 194 6 129 86 223 249 88 60 139 21 29 130 47 54 248 97 71 64 88 237 42 232 169 206 237 6 31 81 165 160 229 103 166 102 189 133 95 21 193 234 43 223 108 90 21 101 187 92 165 19 73 208 252 242 158 233 248 189 58 157 93 31 4 4 133 194 137 229 215 75 
207 2 42 60 93 63 161 24 155 70 44 228 22 40 214 180 17 206 114 75 108 207 106 112 211 239 50 93 212 10 168 164 12 210 224 105 17 129 130 172 199 174 144 222 214 102 146 231 52 4 50 160 212 156 17 167 139 67 4 96 77 172 4 90 126 228 195 143 101 69 59 44 243 203 10 201 49 157 176 102 161 226 6 117 126 23 29 10 91 33 106 168 206 110 2 76 82 198 220 183 11 23 227 255 227 238 200 20 139 121 122 44 91 129 162 218 152 191 228 243 224 78 156 174 188 158 251 14 100 215 197 112 238 168 111 209 150 55 230 33 176 96 78 12 225 240 230 122 175 202 
109 143 24 9 62 212 168 57 226 12 16 167 124 254 79 235 208 230 35 182 7 211 22 85 223 248 69 197 114 244 143 223 132 167 233 194 123 145 251 93 157 11 4 26 9 84 5 217 58 40 143 65 252 166 151 219 158 220 161 16 209 48 239 85 216 216 23 83 105 18 177 7 29 181 33 38 9 38 0 67 79 143 133 75 53 28 38 211 248 199 227 201 248 211 30 208 171 53 35 21 71 212 28 100 138 61 139 147 99 139 215 178 26 92 253 80 120 36 35 112 235 7 58 227 218 88 179 133 142 215 154 213 171 182 58 53 243 197 201 87 80 160 9 106 252 7 186 116 43 222 
228 22 229 30 250 191 119 173 68 5 132 223 218 48 149 20 101 137 217 46 224 41 206 233 148 202 240 78 62 27 44 35 50 17 65 44 208 184 217 21 189 94 244 152 142 137 172 243 18 134 34 242 175 240 220 67 187 204 146 249 232 190 28 26 208 94 70 160 22 31 181 212 125 169 108 11 51 24 255 69 158 33 56 78 17 20 145 204 224 35 198 200 226 226 226 178 64 40 82 87 72 8 43 197 177 151 209 228 175 208 42 78 241 98 156 2 118 45 207 86 81 149 31 51 119 1 229 184 42 55 15 114 63 58 55 241 209 8 213 128 216 255 206 201 97 106 204 215 152 155 
46 233 48 77 28 167 78 1 95 120 56 110 234 120 168 34 105 121 42 62 250 3 62 200 204 159 51 152 119 203 51 165 180 99 242 208 11 64 209 106 185 9 217 163 129 129 197 234 251 240 41 245 243 103 189 191 6 240 88 125 187 139 34 111 239 20 63 250 85 16 100 14 26 61 177 155 191 119 134 186 103 175 175 90 22 108 25 28 93 113 154 24 253 188 136 236 209 199 230 38 216 74 52 242 136 229 141 71 92 19 1 195 194 176 29 216 28 55 245 121 168 143 146 165 75 26 145 28 225 119 66 185 194 118 171 74 92 57 145 184 76 146 124 15 66 153 231 94 208 220 
216 121 107 106 30 183 132 176 211 101 39 22 31 233 140 202 51 232 3 196 161 80 86 29 95 152 182 70 247 135 35 207 0 142 57 30 69 189 206 25 34 246 47 65 223 187 12 19 164 15 215 69 95 46 98 190 198 24 5 189 159 40 140 159 182 197 190 252 130 140 21 165 130 68 230 98 255 242 117 163 2 76 232 97 122 74 32 65 99 37 254 2 77 139 162 3 80 96 255 211 236 20 120 111 88 94 209 88 81 70 251 83 146 228 180 13 46 212 78 145 249 76 148 70 215 54 74 40 150 73 251 130 94 115 241 182 209 194 14 34 8 10 117 155 238 42 168 28 254 246 
174 248 66 66 62 26 120 136 66 14 210 61 144 48 176 130 230 129 68 245 164 77 255 25 232 237 67 144 9 66 134 183 58 200 249 120 226 113 1 36 127 211 97 16 3 17 146 233 147 214 222 55 35 221 80 11 202 148 155 212 214 33 139 16 234 133 136 204 246 137 241 118 92 82 134 95 100 24 73 247 238 39 46 18 5 126 29 207 18 185 163 232 218 47 248 196 180 129 145 170 10 130 32 103 212 166 198 56 190 15 47 173 55 93 191 60 220 220 11 238 149 175 215 112 222 207 52 146 80 197 60 91 71 93 194 28 3 136 84 194 152 132 111 207 225 46 11 189 10 22 
172 160 197 131 16 163 82 68 53 163 10 114 254 81 207 192 109 210 72 194 148 224 70 3 175 39 49 186 229 60 209 145 220 150 20 236 58 102 48 111 9 58 225 7 140 176 199 249 131 16 187 23 240 1 27 160 41 76 90 14 136 43 159 100 194 179 80 252 25 129 107 35 187 77 42 71 253 242 65 128 2 252 152 242 254 179 146 39 255 237 53 136 24 212 236 218 135 61 214 160 190 66 195 121 143 238 193 140 224 2 13 226 254 165 212 252 88 103 35 87 84 88 223 108 44 204 71 179 9 29 84 199 95 23 64 238 5 1 123 229 3 136 199 2 45 156 254 133 3 34 
220 87 122 188 195 167 136 10 90 145 40 174 88 135 198 152 118 203 154 241 177 157 121 120 159 166 20 158 43 23 192 7 110 58 195 50 225 75 60 60 220 100 234 52 236 176 205 98 124 103 83 45 4 204 165 164 114 186 66 157 209 2 164 64 60 104 114 30 179 174 90 144 19 68 196 255 245 145 97 113 248 180 158 253 128 67 161 242 253 227 143 207 229 51 15 33 155 129 63 79 47 153 223 66 222 163 65 211 53 162 68 45 86 226 42 214 37 203 200 35 174 87 242 147 139 1 181 38 130 244 117 177 142 84 244 108 248 53 63 45 216 131 90 46 101 133 5 138 80 205 
173 255 37 159 146 176 160 71 214 34 60 76 212 202 160 200 54 152 253 117 197 213 248 32 4 93 165 9 231 245 214 149 244 251 52 135 171 213 206 130 247 10 206 203 212 110 147 10 7 145 127 204 102 119 236 106 212 145 115 188 135 74 81 123 69 133 2 241 90 209 115 82 219 65 29 176 175 177 186 182 66 58 131 168 177 111 19 134 1 134 66 136 208 147 3 22 24 6 7 115 215 122 197 178 187 226 98 106 147 29 33 213 87 164 126 8 19 145 142 20 23 208 156 232 99 160 254 124 166 5 239 125 127 180 47 58 150 146 164 42 175 197 255 6 105 125 14 125 14 157 
145 38 109 46 14 209 206 12 77 116 17 60 241 144 240 32 202 134 178 110 176 97 52 176 103 157 45 118 26 60 19 172 98 128 218 112 81 168 124 158 28 141 218 13 29 202 45 231 81 224 85 1 65 137 177 169 39 223 31 65 27 50 237 125 178 199 237 4 111 105 162 139 246 125 152 19 71 198 250 152 166 79 154 231 217 75 144 0 42 175 65 69 225 47 194 148 246 175 152 102 24 58 241 14 183 138 33 255 80 27 151 246 107 49 221 68 125 110 68 167 29 133 237 255 180 175 147 171 95 43 17 119 101 2 134 29 140 167 28 220 195 179 210 46 229 176 114 98 30 182 
9 59 59 246 58 240 166 205 155 5 248 172 124 94 174 2 123 59 170 151 23 109 74 234 155 47 154 13 145 184 195 155 243 254 145 46 238 55 251 137 60 244 53 185 82 228 187 205 31 101 100 54 210 174 32 109 222 186 122 111 114 61 10 102 60 156 148 42 211 143 180 16 131 233 201 213 205 132 162 236 234 6 35 188 181 67 42 147 254 164 2 112 226 13 214 30 169 106 72 124 250 252 140 125 230 85 83 179 218 245 160 196 252 195 128 177 6 170 68 4 79 70 117 49 83 75 79 252 182 151 121 176 148 5 45 122 91 128 45 53 118 205 249 114 144 121 35 151 36 103 
155 115 173 16 164 1 92 243 253 18 138 118 194 30 124 239 152 215 112 198 12 230 147 5 88 36 126 123 187 162 226 86 21 143 103 185 144 195 172 142 213 55 4 151 85 128 134 238 87 246 180 99 220 71 104 52 107 231 175 38 137 145 125 159 33 228 88 177 167 5 63 124 60 68 19 145 196 153 127 28 144 51 127 108 123 232 161 230 207 80 13 88 226 138 247 3 110 80 180 21 85 244 145 145 56 164 34 252 61 162 24 205 213 152 58 80 128 219 55 79 43 68 167 13 206 159 16 60 239 197 81 68 185 226 213 241 134 247 237 195 153 6 145 111 158 203 191 30 166 246 
109 209 58 20 223 8 179 239 68 162 180 149 230 109 119 187 94 253 179 76 193 76 82 82 187 240 29 123 14 195 113 123 148 172 143 115 180 67 99 249 229 23 142 204 133 6 135 227 3 58 47 196 135 129 22 66 113 51 189 127 246 47 250 139 219 138 254 143 205 97 136 178 121 23 126 254 29 6 225 32 64 17 229 199 146 251 10 4 47 199 131 37 246 126 176 209 8 175 97 213 16 233 135 137 0 6 135 29 12 105 62 76 122 35 20 12 30 30 16 77 229 148 115 220 18 35 173 26 210 14 239 227 248 118 108 248 124 244 22 136 93 84 213 215 119 233 227 149 7 244 
227 236 136 86 200 154 121 118 180 76 132 163 47 124 25 155 117 150 143 139 30 236 223 243 195 86 220 167 235 227 155 206 208 35 36 152 189 158 14 113 234 147 20 25 15 45 180 132 195 68 15 226 48 238 213 244 68 178 155 48 149 54 254 101 89 35 254 22 193 12 135 171 159 155 196 175 200 120 51 140 188 67 110 237 49 67 225 118 245 124 166 139 178 164 240 11 199 238 33 136 251 168 51 154 67 247 73 11 112 125 151 44 192 5 25 241 73 250 103 62 118 13 201 40 178 186 51 121 168 84 2 163 252 53 62 63 45 135 75 157 4 226 201 196 232 227 182 49 221 29 
111 84 43 57 124 221 243 176 86 155 4 88 63 1 142 125 64 187 4 139 88 9 110 33 205 86 4 131 135 226 161 246 54 204 47 178 169 34 98 255 190 103 88 253 104 230 122 168 161 126 52 249 135 162 26 85 248 31 216 127 1 121 117 55 69 165 233 238 199 76 238 133 179 70 130 27 44 252 195 205 123 247 198 2 153 224 87 145 255 48 16 0 169 134 55 239 43 33 221 242 109 203 120 32 17 250 59 61 247 254 10 114 246 208 116 143 177 204 33 176 252 49 177 165 183 232 148 226 9 114 213 118 61 77 150 79 71 209 140 62 208 151 176 198 103 37 85 24 241 118 
201 237 168 122 146 95 98 39 66 108 153 23 226 214 100 121 37 171 74 178 234 26 73 154 224 176 191 54 201 176 172 146 157 84 12 48 180 110 87 246 218 240 13 189 198 113 54 236 28 128 158 6 155 231 161 123 151 96 177 96 17 94 242 174 178 254 222 102 109 53 92 71 37 105 4 236 218 58 216 247 187 118 253 86 93 158 209 244 255 131 85 16 225 71 190 147 70 157 250 179 210 86 250 248 192 255 228 154 57 188 145 244 50 143 74 143 45 28 131 44 159 216 60 128 32 251 19 102 152 13 25 106 100 19 98 36 18 70 190 76 2 80 64 52 223 139 195 12 167 71 
57 70 31 117 198 63 112 217 165 8 231 190 115 75 210 213 111 228 28 45 48 30 125 113 83 92 252 22 105 163 93 162 233 125 23 175 188 136 136 98 144 111 32 3 186 242 217 41 215 245 87 7 19 212 120 102 49 116 125 154 23 218 60 0 87 83 175 20 219 56 118 108 167 150 111 98 137 72 139 96 61 226 103 81 183 224 183 232 84 52 130 108 15 190 108 102 17 28 122 237 84 240 89 251 135 200 93 16 17 233 112 78 203 215 159 130 183 87 106 12 139 236 120 154 170 228 1 188 0 123 169 84 108 2 80 243 202 173 3 219 150 115 42 98 74 201 228 2 32 79 
14 172 59 134 70 230 106 71 162 107 195 75 191 47 77 15 34 23 189 37 243 83 152 29 181 226 230 154 228 7 233 242 179 36 120 249 10 227 65 172 78 4 247 13 51 68 29 85 92 218 122 79 45 18 108 227 244 82 125 217 89 102 203 12 138 68 6 149 39 71 65 117 75 57 130 126 125 159 211 217 121 77 40 167 95 148 138 83 231 7 44 64 109 248 77 247 60 83 140 99 154 206 216 229 7 90 99 132 250 54 94 115 131 134 26 226 27 164 53 2 171 98 66 24 90 143 16 150 226 156 249 124 106 209 97 113 43 196 246 37 250 84 153 125 218 179 95 245 88 149 
247 3 247 58 28 81 201 44 231 172 200 224 40 51 177 138 164 220 78 154 2 73 238 155 198 201 78 38 190 166 187 182 170 178 240 198 3 185 242 234 101 186 202 142 237 123 24 146 87 102 44 89 175 27 244 118 228 67 156 162 233 87 88 147 9 72 89 12 2 75 246 103 6 192 245 243 59 13 133 146 116 178 236 35 205 224 153 177 35 53 83 13 140 172 160 149 244 250 161 246 69 151 94 75 87 83 63 146 97 196 37 213 118 17 248 67 241 146 244 21 199 72 34 84 244 194 233 232 188 139 223 2 34 61 77 122 144 140 12 241 81 49 198 199 66 191 11 52 81 255 
73 24 71 107 108 59 45 86 36 234 225 3 236 3 64 57 125 208 198 138 194 23 187 136 222 254 71 233 50 152 233 123 177 48 230 29 108 19 115 144 253 84 147 233 88 211 35 213 163 233 95 101 0 27 238 222 25 53 200 75 206 177 198 127 225 172 156 77 191 16 221 189 100 112 166 188 67 201 146 231 178 241 76 178 12 58 145 37 112 89 112 62 10 54 189 235 226 89 57 162 105 22 95 206 135 5 138 202 207 28 177 129 14 254 52 26 56 197 64 168 30 176 230 40 231 163 19 201 253 76 107 102 99 202 52 234 208 191 180 159 219 102 32 233 100 84 4 156 25 68 
69 55 244 43 95 219 207 115 165 204 191 16 50 34 219 103 12 171 38 193 74 1 39 106 235 139 191 239 39 216 51 108 16 39 152 111 3 103 226 168 51 162 184 101 196 147 204 209 62 242 146 136 244 185 243 223 68 178 206 107 138 1 216 154 40 112 10 43 215 236 211 10 142 140 111 83 31 60 36 94 46 182 230 34 111 217 1 179 139 207 30 22 208 246 176 249 102 186 36 61 167 248 71 53 132 183 136 163 243 172 1 33 98 232 68 209 193 69 132 77 21 163 99 229 153 19 222 0 206 3 61 117 251 133 170 127 60 51 34 47 223 36 80 66 12 148 19 205 218 152 
26 239 59 125 212 212 145 179 212 95 182 18 212 177 151 126 48 211 177 82 2 145 118 82 211 130 231 230 80 193 126 106 176 185 232 132 142 121 55 98 216 237 116 172 158 11 42 206 222 220 33 224 109 151 51 64 26 26 38 106 219 165 212 139 94 188 15 236 53 71 79 13 52 195 185 211 207 228 161 173 192 194 142 45 90 193 109 116 219 147 222 182 56 178 65 151 111 80 131 164 151 210 178 204 150 107 159 101 79 64 18 15 3 160 60 93 97 169 209 60 61 175 242 117 97 51 12 208 132 144 117 27 98 39 231 248 146 134 93 226 199 112 241 202 16 46 39 114 215 248 
174 20 167 161 138 8 212 150 217 88 38 78 116 137 117 91 129 7 226 223 233 169 79 219 115 95 9 154 209 224 146 128 245 57 33 127 65 245 21 26 78 60 104 194 197 221 29 70 229 255 37 206 168 116 169 27 212 178 181 165 147 71 37 136 128 70 7 194 60 28 220 138 88 69 76 29 34 105 100 7 105 137 214 17 254 127 45 210 50 226 119 197 42 157 77 170 227 84 108 31 112 73 169 201 142 245 230 176 95 74 184 200 212 142 217 210 13 6 164 63 233 27 4 19 184 81 189 156 165 42 187 22 115 101 223 1 90 197 177 185 16 105 129 228 247 91 182 5 97 90 
68 74 117 73 93 46 154 27 202 64 69 133 86 184 234 53 185 69 250 106 254 10 212 128 238 203 219 164 208 60 254 21 135 116 94 228 162 248 255 108 56 68 241 142 252 220 195 181 33 190 32 31 200 244 159 183 191 122 91 144 183 90 165 62 206 3 34 112 251 34 220 52 102 205 194 99 169 134 24 202 68 56 234 12 44 137 195 236 4 31 124 187 121 33 249 71 36 27 183 31 61 147 83 164 96 22 7 10 156 31 212 224 88 190 236 132 72 176 112 76 207 236 7 72 13 0 143 49 27 70 81 89 217 164 253 57 186 4 67 86 35 24 54 123 214 35 0 30 211 112 
106 162 93 113 234 106 113 121 156 141 191 237 230 152 145 227 209 76 231 21 162 10 45 217 134 3 252 134 34 207 246 140 113 83 254 91 190 111 212 90 252 147 71 226 43 216 197 252 36 172 17 199 183 62 160 61 66 156 195 100 107 185 240 220 13 238 55 203 94 11 37 90 158 108 61 201 68 2 197 105 175 215 48 102 21 208 163 87 108 102 187 215 31 172 179 44 154 234 247 248 245 28 83 147 136 144 92 205 146 33 54 65 248 102 167 14 54 74 101 162 176 33 121 208 205 44 252 103 22 244 96 11 16 179 158 153 67 250 102 213 27 156 23 20 2 190 34 56 9 135 
218 185 168 83 137 117 127 134 221 149 122 61 160 138 240 62 35 51 56 137 8 83 37 31 103 39 222 137 95 231 17 57 160 185 140 42 47 11 176 12 160 42 73 64 180 57 126 216 108 182 97 116 10 135 148 113 174 114 251 14 89 12 71 249 197 212 35 244 223 211 0 128 253 73 192 178 130 63 138 238 245 235 99 255 114 247 113 33 105 108 47 194 120 118 187 61 74 223 50 42 178 50 170 176 124 106 98 254 169 236 237 159 215 80 158 74 71 15 107 176 123 154 114 243 16 45 49 91 12 99 133 191 149 47 111 17 153 209 16 67 189 253 226 148 77 128 222 148 144 73 
68 11 227 182 255 244 227 48 79 240 147 212 175 40 3 30 58 156 239 74 223 172 71 193 64 148 66 31 40 210 104 108 221 76 34 220 64 5 12 143 245 159 99 164 200 102 194 2 2 177 76 226 93 147 163 158 39 229 189 79 183 37 187 149 113 221 113 177 226 126 64 216 29 163 124 229 9 63 231 12 240 51 238 78 198 145 236 237 119 169 60 46 206 247 195 64 212 53 241 183 179 50 143 208 213 11 182 223 74 157 235 59 209 217 137 151 106 117 133 225 30 193 16 236 185 211 44 141 8 30 68 187 80 211 140 37 223 66 4 41 223 239 100 176 200 237 72 51 98 205 
20 128 142 36 109 71 248 153 213 0 183 25 188 7 237 72 45 204 138 49 245 105 33 90 26 233 71 98 28 170 47 49 42 189 85 151 5 77 49 218 78 232 243 10 240 224 82 29 172 220 78 162 69 111 252 95 89 67 193 117 237 240 166 24 174 252 175 179 73 224 141 151 201 128 161 185 97 243 214 13 207 36 175 21 148 171 116 237 239 54 98 220 38 9 244 212 5 164 135 78 132 20 230 77 149 135 6 246 123 220 3 74 1 179 95 149 94 212 130 77 10 228 42 48 237 30 5 242 194 140 65 71 161 39 148 54 174 155 44 41 119 47 116 120 226 211 13 65 167 143 
