P3
50 50
255
161 242 253 125 161 27 130 75 24 198 21 29 72 195 178 175 40 223 194 164 130 43 216 26 72 251 83 41 230 135 156 136 121 153 5 26 180 135 101 205 77 123 234 149 62 157 68 103 124 7 11 255 50 228 25 122 223 108 163 198 243 63 78 108 217 83 135 141 218 236 90 40 103 69 189 166 226 2 13 94 9 24 93 59 252 118 181 220 227 89 162 214 152 240 67 113 67 202 255 29 182 89 69 30 158 3 196 128 5 209 223 14 233 60 73 230 179 254 194 150 87 100 108 240 84 175 97 151 121 96 180 48 186 250 78 88 253 18 217 2 227 184 16 204 244 89 178 167 87 116 
61 175 216 170 159 44 89 0 195 211 97 120 3 27 114 81 115 111 99 76 113 70 4 129 18 249 218 197 160 49 57 222 224 18 136 127 62 225 128 2 180 225 122 183 252 236 8 111 91 107 188 204 177 192 77 196 185 39 137 90 88 194 56 57 212 192 184 19 161 56 21 86 25 143 13 21 123 22 133 214 129 65 162 51 1 239 247 187 22 128 21 110 66 77 167 23 13 96 42 174 152 63 4 178 206 18 199 73 40 76 31 169 141 193 220 143 176 211 74 198 83 95 52 150 172 220 173 185 60 215 103 212 22 108 134 228 126 78 45 166 154 76 79 40 13 44 183 189 255 1 
131 83 96 183 233 12 147 150 197 207 109 44 164 131 152 42 103 22 120 148 188 19 224 12 59 237 56 242 170 55 243 45 138 83 228 115 95 120 9 36 71 118 80 235 249 233 22 96 255 142 244 188 161 212 200 220 193 0 206 107 55 193 152 194 20 125 53 115 245 63 151 60 181 232 40 175 209 62 15 208 204 4 140 110 216 84 74 154 84 25 5 140 218 158 78 239 27 131 98 16 194 250 76 120 226 116 39 179 178 54 131 127 58 16 237 19 100 55 173 185 80 178 69 43 80 147 26 107 22 124 123 217 118 200 81 88 60 120 11 239 174 143 110 233 159 91 252 3 146 169 
188 227 91 1 14 172 148 40 23 171 164 147 132 27 91 213 115 151 77 127 134 251 14 244 228 173 79 224 176 226 137 109 197 229 110 211 145 3 251 168 174 159 59 50 186 150 7 46 46 84 173 180 79 187 169 52 104 248 20 24 218 158 133 159 131 244 114 20 247 109 188 165 13 248 215 199 142 222 245 188 50 162 113 129 93 26 181 197 18 202 222 237 104 99 140 235 87 255 255 78 108 187 243 121 179 202 65 66 168 54 254 218 217 111 92 54 137 17 252 156 219 218 137 67 61 21 46 149 20 45 227 129 233 215 250 156 161 59 222 74 114 221 36 75 76 128 129 214 146 125 
114 109 87 251 177 149 16 223 42 37 13 13 166 246 228 160 146 134 220 113 208 78 78 244 153 154 117 26 112 7 152 226 116 239 221 37 132 238 5 174 19 18 188 185 8 160 89 154 38 53 11 246 131 89 235 28 244 96 55 100 103 207 71 219 190 36 1 67 18 6 241 37 24 173 222 32 78 56 186 116 109 198 107 241 31 86 13 19 182 68 120 29 19 191 248 210 227 249 21 246 255 6 27 23 180 250 55 2 50 242 118 159 184 225 144 215 55 158 235 237 226 99 10 246 34 3 200 5 252 221 251 252 227 23 19 151 17 75 153 67 61 16 226 245 241 115 204 41 17 183 
22 243 26 33 233 60 36 177 66 32 142 61 28 114 84 48 9 101 123 163 168 184 179 139 173 164 254 121 205 15 49 228 2 75 5 236 136 41 157 202 73 44 7 102 158 92 150 167 193 17 74 106 201 253 245 118 162 243 239 111 2 32 83 4 108 88 240 244 129 142 190 203 186 197 49 88 33 199 255 227 216 74 77 161 71 66 23 233 53 6 89 55 39 172 59 147 5 44 135 134 186 69 81 116 10 130 204 44 73 203 15 33 21 92 194 93 158 217 70 211 224 159 10 7 76 69 154 81 113 33 215 43 102 41 159 112 171 107 156 245 55 171 22 76 7 217 169 165 178 240 
120 146 143 130 153 219 200 51 44 57 84 4 101 186 45 4 43 216 112 199 205 167 115 228 243 122 189 157 32 111 141 152 2 28 27 155 248 227 207 36 28 35 40 129 222 85 134 9 46 246 208 251 157 67 223 144 190 156 45 222 12 186 118 14 215 145 169 207 116 120 243 145 156 28 18 122 113 152 131 159 142 83 155 43 151 122 188 85 23 233 51 35 164 169 49 123 59 218 74 175 83 61 64 239 89 83 105 203 235 236 106 122 63 5 165 214 128 97 43 151 75 94 186 239 8 235 106 67 197 180 242 24 241 51 7 75 134 112 22 113 92 128 235 156 134 145 114 6 242 158 
157 61 252 87 44 4 66 150 71 7 74 58 32 60 109 39 135 243 152 157 100 244 29 80 144 163 225 3 169 211 161 70 17 157 157 61 162 223 212 233 231 30 35 7 90 144 46 225 131 198 126 232 187 156 56 75 63 25 78 233 236 239 47 253 141 205 59 47 172 15 24 147 45 60 154 136 204 201 105 80 143 232 56 74 132 112 150 195 137 228 172 117 212 220 115 97 169 174 144 85 189 168 233 234 228 131 114 177 76 220 1 220 196 57 38 72 169 188 11 50 161 184 167 117 148 26 214 61 200 102 146 133 14 123 112 243 255 226 164 75 190 165 39 130 222 78 202 135 10 214 
185 171 142 96 32 34 123 246 95 67 92 241 201 107 109 57 94 108 27 2 183 218 167 223 92 133 45 39 12 55 253 197 227 139 37 3 173 160 250 12 228 86 253 173 193 106 230 31 214 1 33 142 219 200 109 56 77 154 95 89 209 92 30 180 231 68 184 148 228 178 160 200 8 157 117 202 8 91 233 222 93 11 108 56 211 217 112 33 115 207 122 69 43 153 249 18 221 177 166 193 99 70 138 108 228 255 54 236 91 31 202 184 42 55 240 254 16 97 31 132 48 153 201 92 50 194 110 15 116 21 209 215 91 91 67 63 90 121 43 181 153 246 109 195 45 94 193 61 191 224 
193 239 122 138 75 172 77 186 188 193 207 141 152 42 232 220 106 66 85 149 248 238 139 101 178 184 195 115 246 130 84 183 114 206 66 189 122 143 119 54 80 70 195 232 113 171 196 219 238 26 112 230 8 252 75 186 180 15 46 170 145 130 98 3 80 164 193 202 51 56 1 131 127 196 107 240 112 48 203 94 74 59 68 82 55 143 13 236 158 59 150 48 189 248 51 13 156 244 215 207 45 216 82 172 157 190 156 13 238 103 107 56 162 175 138 218 62 151 198 221 210 92 13 143 85 64 156 241 53 116 193 98 76 19 14 233 209 170 246 191 17 97 247 179 16 130 141 79 25 83 
44 236 176 57 123 5 121 24 246 174 140 183 16 216 203 30 194 156 200 184 92 217 26 83 141 42 213 26 121 239 110 165 219 30 222 86 35 88 110 25 6 250 209 23 211 156 53 149 56 254 77 148 215 103 232 100 146 189 127 11 172 237 177 135 11 143 222 46 231 76 71 238 71 24 5 26 180 58 175 237 56 252 129 16 100 105 116 246 39 243 1 211 224 178 91 235 66 57 25 41 133 97 23 204 121 28 230 46 87 149 27 143 146 156 159 246 6 20 236 45 7 237 0 232 160 91 211 226 148 237 11 26 78 35 230 199 63 205 245 150 98 16 38 244 173 197 234 179 217 214 
224 225 196 224 201 100 60 156 70 208 137 81 234 215 116 209 159 180 158 148 74 0 165 112 245 82 54 223 5 15 182 229 240 122 197 185 222 1 86 36 210 223 117 188 183 234 141 86 158 43 234 232 44 143 89 33 225 143 0 230 158 182 203 143 48 145 72 14 146 158 50 100 126 168 33 53 146 174 139 48 218 117 24 6 5 113 39 230 0 39 205 159 222 152 46 14 41 118 29 188 21 79 32 147 247 65 200 137 240 83 185 202 200 210 208 205 67 247 180 68 30 129 227 252 25 17 11 67 135 40 255 156 119 31 47 111 97 247 248 81 74 178 27 19 132 235 224 199 226 148 
11 0 21 238 253 47 255 8 114 135 48 113 35 167 144 83 22 241 74 15 66 149 193 93 168 69 72 136 12 42 29 24 43 50 6 40 97 6 48 211 141 96 68 176 7 213 3 30 198 78 45 9 227 238 102 139 51 175 19 63 217 48 87 4 99 94 44 196 100 92 152 241 188 220 161 196 177 165 226 120 243 15 129 214 253 231 97 48 150 116 111 112 165 199 116 8 37 161 204 137 253 100 122 186 65 27 126 242 192 96 106 179 111 235 137 108 211 234 156 105 95 11 217 4 210 78 12 247 239 216 128 236 61 250 166 126 22 36 112 214 132 219 138 243 198 19 95 153 254 251 
3 93 7 220 97 217 42 109 209 25 69 81 6 130 76 172 0 98 209 113 56 85 76 194 73 18 214 168 172 212 164 175 49 171 139 146 132 182 255 85 207 68 167 213 199 243 130 199 85 83 56 141 168 132 80 241 151 38 154 67 250 62 242 43 233 125 189 109 51 188 195 3 0 106 216 199 93 90 143 178 173 199 63 86 76 143 71 227 181 225 38 175 31 24 218 8 149 151 118 201 83 57 204 84 163 164 27 0 255 170 178 172 114 241 2 190 129 74 161 54 43 199 230 75 223 192 83 116 88 201 61 171 2 9 255 165 174 27 165 173 197 87 89 55 73 92 245 202 166 150 
0 209 93 230 28 60 167 112 177 255 57 238 170 60 248 170 225 166 197 135 83 138 222 172 194 39 8 183 241 174 78 242 128 171 216 156 232 127 12 153 126 70 135 41 130 127 211 99 37 152 234 120 34 201 37 228 240 45 156 226 220 234 212 92 149 172 248 125 44 5 22 170 75 158 211 205 29 166 48 67 62 27 187 97 228 224 69 212 14 225 182 234 203 138 70 97 55 62 222 99 67 245 13 142 147 225 91 176 135 140 243 198 167 175 39 139 143 108 95 157 78 22 135 25 160 205 122 215 12 89 58 79 78 72 222 225 41 57 145 176 197 133 118 108 52 157 247 195 10 87 
97 88 109 232 113 13 182 236 229 194 69 31 17 147 103 239 116 144 41 5 65 238 138 183 91 190 85 82 130 95 169 227 183 22 203 40 36 129 20 9 67 89 40 85 236 144 68 96 32 109 102 97 92 240 25 183 175 110 9 49 205 179 20 132 201 223 172 237 97 193 246 164 26 31 249 7 175 62 103 207 171 205 49 7 190 74 190 109 184 200 158 133 123 178 9 68 145 181 50 242 118 40 151 145 71 144 152 246 206 255 198 122 205 247 129 139 65 64 248 249 8 150 126 131 72 135 199 217 60 249 204 179 34 99 68 105 243 220 96 194 219 38 60 168 29 189 51 94 253 43 
87 5 193 213 136 9 92 80 227 152 73 175 75 107 18 143 213 5 107 53 199 71 91 3 239 120 193 35 214 190 78 45 196 16 2 76 25 94 156 252 246 230 171 66 81 189 209 38 195 61 91 138 132 182 142 115 46 79 150 4 13 229 49 209 245 51 30 14 145 186 11 136 160 182 202 242 116 155 24 55 216 116 193 92 42 79 208 89 158 102 93 172 75 143 125 64 194 155 79 84 86 90 220 246 16 166 232 132 65 1 187 26 117 125 118 159 204 70 248 107 173 86 23 248 229 148 57 167 48 136 251 134 226 215 124 242 125 101 119 191 102 50 217 219 175 79 122 124 150 115 
231 67 201 254 59 174 146 116 85 194 252 81 72 222 40 197 209 166 42 72 101 144 122 62 107 42 141 229 166 35 88 141 102 33 139 162 207 29 22 37 224 19 118 40 241 158 237 194 68 23 10 169 167 133 231 18 175 117 248 85 152 80 226 255 114 109 161 65 138 183 102 106 202 220 147 188 123 128 126 191 152 137 105 63 14 80 82 189 197 74 18 94 154 244 93 12 97 254 78 235 181 180 86 128 145 233 60 12 105 186 203 1 67 52 65 81 133 147 14 74 221 32 168 119 20 5 132 117 3 210 97 185 134 183 57 23 160 117 35 9 47 239 11 115 35 76 196 168 223 211 
243 188 243 155 51 8 161 183 125 164 137 222 93 16 149 150 39 53 11 75 63 59 58 74 174 93 150 114 6 117 69 249 49 57 148 100 65 53 28 190 218 165 157 55 181 50 206 221 104 217 40 167 20 98 241 194 191 135 53 197 252 122 190 45 179 83 145 244 136 173 179 98 83 80 154 8 130 104 229 234 65 13 145 86 111 130 24 47 9 77 244 5 200 179 50 123 6 196 112 142 113 35 241 196 115 139 205 245 243 178 224 52 192 113 138 47 244 163 94 253 240 83 3 184 6 53 52 12 249 164 154 107 199 139 47 58 22 252 47 9 175 15 62 111 129 200 158 117 107 253 
114 92 80 117 20 86 171 72 98 164 236 252 15 179 136 63 237 158 59 29 168 234 44 230 89 173 174 248 34 26 245 149 118 69 10 138 155 181 211 253 90 191 249 105 115 129 168 96 32 228 125 200 206 170 174 40 87 92 32 122 118 21 15 236 90 25 119 245 207 74 242 41 9 235 146 124 109 59 221 141 31 90 85 237 4 3 21 92 95 53 214 214 74 229 194 164 254 57 153 205 131 139 246 141 119 137 9 228 196 230 113 227 65 198 208 69 201 230 161 40 27 119 254 102 92 193 10 91 250 164 40 126 47 31 11 166 168 20 138 108 251 251 79 60 193 31 129 138 5 35 
179 33 154 177 135 247 114 145 82 109 53 122 235 101 153 246 11 65 10 150 173 5 145 252 65 83 28 195 221 33 230 144 66 128 66 201 119 180 91 201 33 144 68 12 245 221 2 1 31 13 151 204 18 40 201 84 123 229 23 89 6 253 233 73 125 43 18 245 224 109 190 1 254 2 14 243 224 16 244 255 29 139 203 48 180 148 132 47 121 155 136 128 152 114 201 21 157 219 10 125 73 201 127 71 203 141 58 171 157 47 170 187 186 118 235 110 10 111 158 132 10 38 4 162 152 205 183 54 168 194 179 241 139 50 56 86 191 115 2 93 162 172 24 92 34 3 203 45 114 105 
177 124 143 181 30 40 130 213 94 42 151 17 28 34 68 84 121 3 199 123 96 105 39 120 198 74 123 145 119 237 250 40 105 137 221 135 177 95 93 15 137 244 33 165 23 101 250 144 104 193 11 201 43 50 65 241 124 189 130 243 170 124 27 20 5 248 155 183 87 248 198 225 237 231 134 4 76 128 148 181 66 159 126 109 209 191 94 78 124 224 65 39 92 93 59 97 85 214 24 173 207 223 142 188 198 20 192 19 149 84 200 215 243 70 68 196 5 162 18 130 130 84 169 222 177 228 63 6 186 88 179 137 55 65 69 253 86 5 16 235 89 216 194 76 30 6 17 36 168 35 
166 42 119 79 8 40 51 71 47 237 159 226 119 214 36 188 212 122 194 228 101 27 189 39 104 219 45 121 255 213 156 165 255 20 244 7 60 39 78 107 21 238 78 140 196 114 72 152 236 10 125 81 38 58 120 142 21 165 7 21 122 163 186 121 183 175 128 244 214 206 95 235 188 173 119 129 31 192 25 11 202 150 92 240 208 212 126 230 121 133 251 243 41 181 108 224 100 236 212 59 187 52 38 119 225 158 248 1 94 18 12 40 168 105 25 121 61 151 95 183 29 90 170 70 15 23 38 116 3 251 175 190 47 213 54 16 115 46 17 209 64 30 250 233 135 19 98 196 170 193 
123 199 27 38 13 42 61 52 158 64 47 77 255 94 35 53 110 150 99 128 104 164 158 98 141 37 117 239 233 31 176 101 231 203 139 244 245 200 40 148 8 87 225 7 181 4 60 36 155 160 164 3 68 66 101 209 103 218 192 80 249 112 181 224 59 64 213 48 8 253 196 17 85 166 24 10 170 85 46 69 245 210 72 57 20 173 10 123 135 202 204 129 58 129 97 117 194 54 165 202 52 106 219 137 16 244 147 186 73 194 0 62 148 72 119 169 246 129 36 125 75 240 254 133 114 96 250 52 150 159 254 202 9 218 83 25 206 231 212 23 169 212 85 61 28 204 230 18 77 11 
144 152 251 142 29 109 238 23 161 133 182 160 79 192 122 163 217 72 138 173 95 51 129 180 112 158 128 87 176 205 98 64 101 93 207 130 203 189 153 108 66 79 12 146 15 134 53 233 206 191 150 45 242 24 225 98 182 97 185 102 46 27 167 147 121 118 21 68 51 174 176 118 254 189 8 13 67 61 246 18 252 141 63 238 165 33 80 91 130 10 193 177 37 104 68 158 222 90 226 18 8 147 136 6 80 144 20 147 205 10 165 201 151 229 183 60 6 7 151 136 17 89 57 55 193 126 213 160 216 184 178 224 75 58 231 155 202 251 46 151 5 212 96 157 185 23 217 191 30 113 
71 48 202 129 103 139 255 60 43 215 244 221 183 63 23 158 218 225 153 9 120 159 221 216 60 150 239 21 85 14 134 156 62 80 29 165 220 28 225 7 243 214 229 171 21 252 73 240 222 227 249 86 130 214 47 190 108 30 211 193 44 90 93 106 170 123 15 134 151 241 142 139 199 115 54 220 111 127 204 77 98 197 164 228 155 211 162 7 241 118 200 30 208 38 136 122 161 152 1 56 137 143 195 80 2 249 44 113 121 249 191 219 190 99 192 90 54 98 97 39 216 42 69 168 80 206 35 241 102 36 41 239 179 237 63 181 230 107 38 95 100 229 59 35 72 251 125 126 93 222 
166 54 8 235 222 88 185 1 73 31 37 115 14 216 96 77 141 70 185 180 166 29 153 225 64 226 220 189 96 57 156 6 111 164 242 78 253 171 79 70 203 117 185 217 77 25 39 219 96 224 143 6 253 40 231 62 10 195 251 107 252 151 113 108 60 99 186 57 15 9 127 218 126 57 179 204 82 218 167 178 186 54 184 184 94 159 246 105 98 241 212 95 137 69 203 197 169 133 254 184 142 125 146 13 182 69 217 9 32 128 187 218 182 116 146 20 19 136 125 118 122 81 213 3 151 160 200 64 37 198 248 179 67 138 192 250 207 153 3 239 25 190 202 207 50 92 228 70 229 97 
188 95 179 145 98 74 49 42 138 86 240 130 9 51 12 202 45 219 99 48 203 125 239 149 76 33 241 48 103 214 146 35 53 69 180 151 143 229 193 25 59 177 155 69 229 167 15 18 130 114 67 77 239 50 226 60 83 212 108 187 170 254 222 224 67 147 119 210 120 57 235 180 234 134 249 207 45 8 226 176 122 37 253 106 87 224 166 170 180 18 101 94 17 68 62 84 215 182 39 79 239 18 3 217 153 252 169 198 4 139 118 127 176 116 233 7 84 143 177 8 161 23 102 178 91 165 7 50 91 46 129 74 64 133 35 217 129 204 160 134 87 22 5 7 138 238 14 222 125 192 
230 30 215 77 209 50 242 216 100 77 6 229 151 70 106 186 32 236 135 192 114 222 214 119 230 97 101 244 63 226 180 38 0 139 115 209 189 101 169 33 178 175 7 73 246 113 3 22 93 138 214 207 105 172 70 79 13 171 67 77 141 248 115 142 131 230 95 65 75 9 98 253 184 105 70 174 219 73 196 56 212 154 8 61 71 78 140 84 250 207 161 135 199 20 21 75 250 117 140 69 126 238 66 54 88 136 229 51 210 169 107 166 68 115 227 139 194 111 223 188 62 129 67 6 149 89 81 144 206 221 213 76 203 24 130 35 160 103 86 114 17 194 24 85 53 251 224 247 106 191 
179 169 64 247 175 214 80 0 102 30 221 59 106 168 83 236 204 244 84 34 102 101 228 127 186 26 122 154 17 229 89 197 142 154 188 61 112 12 61 214 42 26 17 148 194 101 128 142 89 212 177 191 57 149 62 243 175 185 141 193 158 231 134 44 129 66 105 241 78 166 199 120 192 216 12 130 61 140 17 150 97 194 86 154 87 148 142 7 77 27 200 235 2 78 23 131 144 128 116 222 38 59 86 230 20 98 105 81 238 122 232 79 60 62 234 147 210 120 154 32 147 98 11 150 176 35 25 64 163 142 30 202 201 116 176 221 214 25 47 197 147 23 20 207 85 254 99 39 118 253 
71 10 96 83 160 16 118 185 81 25 71 111 227 17 228 148 238 186 173 29 127 65 52 148 16 137 146 115 177 9 113 248 19 209 75 179 225 193 108 50 219 180 162 190 197 134 82 179 64 0 209 192 65 5 84 81 143 230 197 64 239 54 56 2 7 132 181 232 69 34 27 32 214 189 223 155 67 49 78 131 49 31 67 114 37 151 196 180 126 137 244 109 191 44 112 198 176 37 174 246 71 201 22 29 134 245 184 201 39 7 77 88 38 144 203 75 40 143 255 166 24 243 19 215 32 131 157 208 169 75 198 240 21 221 14 155 210 198 101 249 205 178 82 244 66 29 63 106 172 63 
16 196 50 36 155 82 167 56 35 80 131 233 65 152 198 79 52 153 21 153 146 227 75 228 215 141 1 22 248 173 85 8 113 136 44 12 218 212 68 253 36 200 231 101 96 173 180 148 70 202 45 217 173 120 189 132 6 191 154 254 108 240 6 222 120 51 234 82 7 47 80 43 247 55 145 87 228 69 236 43 15 25 4 188 146 193 64 152 128 219 150 237 203 156 203 67 207 181 149 214 228 229 2 219 28 147 51 1 216 31 44 232 56 48 164 202 241 229 98 114 192 248 95 139 149 42 206 100 223 99 59 196 73 61 159 101 208 210 102 168 241 146 144 42 194 53 244 180 26 87 
38 218 79 133 101 228 175 51 73 142 150 132 82 223 193 242 69 145 196 171 57 182 62 202 224 0 255 212 180 25 43 218 243 123 95 88 95 14 139 168 157 33 44 239 1 237 225 70 126 166 241 184 92 47 130 60 48 129 16 228 154 60 191 141 183 30 229 22 45 112 191 202 145 235 185 146 217 155 216 87 65 202 15 157 249 145 217 41 18 233 14 172 37 205 57 220 235 30 243 24 142 178 226 32 157 156 178 118 55 139 206 120 85 221 21 78 111 238 120 129 215 134 46 253 83 103 217 62 134 204 87 20 126 57 52 28 213 231 146 12 114 96 132 199 62 153 21 173 135 141 
46 95 19 92 92 102 196 53 165 74 2 252 94 128 53 147 156 11 122 47 23 236 143 156 179 205 53 200 122 189 86 169 28 105 5 120 208 201 173 117 19 175 113 114 48 166 5 204 177 127 251 201 107 139 101 30 88 154 230 211 87 60 124 115 166 129 235 118 75 153 235 94 72 92 208 120 2 213 69 180 84 64 125 191 203 226 221 36 124 196 247 212 0 115 71 166 244 51 28 63 204 7 158 20 99 110 141 102 68 210 26 152 18 151 88 222 121 53 2 245 249 249 201 250 108 17 160 96 68 189 160 16 196 62 36 40 172 177 142 240 131 168 137 150 63 225 116 184 22 118 
173 16 111 119 10 219 136 170 59 204 103 219 220 44 25 0 84 198 178 226 182 53 138 63 203 201 32 63 129 55 181 46 71 36 165 81 255 45 251 59 249 99 22 213 143 48 214 227 246 136 197 172 189 79 236 137 24 12 200 153 67 126 199 138 162 109 219 162 154 215 221 148 58 243 105 201 35 63 172 25 199 113 198 133 192 178 14 216 190 214 113 2 84 56 140 247 165 104 153 64 63 118 212 121 105 61 66 141 125 238 166 68 95 108 201 31 30 215 247 221 174 104 223 2 160 107 249 70 211 146 134 18 8 90 139 114 151 205 255 20 187 165 89 26 18 34 57 48 250 48 
13 168 152 236 170 57 88 164 127 43 54 5 62 63 95 201 177 246 151 176 11 82 85 100 109 103 134 166 152 128 215 165 40 111 146 211 168 234 119 39 21 173 44 83 236 139 29 157 130 180 77 141 6 163 241 115 10 119 26 162 248 241 72 32 96 218 243 9 196 106 48 217 24 93 45 4 232 74 162 106 254 239 247 4 146 232 120 157 96 146 63 88 131 135 120 227 97 108 236 37 214 29 255 238 122 44 243 98 118 149 205 116 132 196 120 23 173 240 180 13 130 243 101 5 123 221 233 220 73 213 2 32 242 1 14 108 45 1 207 163 150 156 23 27 96 143 50 13 128 230 
26 2 217 127 8 84 93 241 49 166 198 51 198 185 52 213 37 97 214 244 4 109 144 27 136 241 170 186 254 42 160 25 45 121 152 53 206 245 38 255 156 236 50 98 165 102 55 203 199 14 191 203 123 80 230 3 65 144 189 63 187 93 88 232 214 241 29 164 230 67 163 130 47 213 229 213 59 28 160 2 42 95 205 165 175 179 168 240 68 101 48 255 194 136 231 153 121 4 61 96 71 225 226 118 182 199 75 242 228 235 244 14 75 194 180 250 117 92 235 185 194 27 184 132 163 159 29 29 163 91 125 234 60 95 97 242 39 172 228 11 152 217 25 227 155 205 221 16 42 200 
202 236 227 130 112 135 34 142 164 197 233 33 176 37 128 17 23 167 189 252 178 85 213 204 56 112 153 22 128 195 222 74 175 194 205 32 73 239 174 237 180 151 14 100 188 142 117 211 54 51 207 232 136 164 180 193 20 78 215 149 17 181 223 193 119 172 225 192 155 143 173 80 38 187 180 226 74 42 181 128 93 133 104 229 41 29 166 62 107 125 211 124 51 178 61 170 95 30 107 250 173 24 74 211 212 255 181 30 41 107 158 134 240 6 107 25 35 18 87 142 143 42 11 194 221 72 109 60 103 216 54 20 240 129 232 196 128 157 226 169 8 128 47 248 135 154 18 170 172 105 
57 60 148 68 254 113 140 107 173 243 67 227 8 52 100 240 248 228 141 219 141 150 91 188 142 226 87 160 141 3 10 198 63 158 10 62 15 150 169 188 138 237 159 146 33 4 130 25 232 15 244 118 165 80 50 52 50 137 212 191 141 222 133 204 124 143 10 139 38 180 71 176 161 231 66 194 235 196 219 211 211 208 73 121 32 124 173 82 5 129 18 146 96 151 95 220 39 105 104 77 29 175 253 190 150 63 128 129 3 92 85 214 44 158 79 76 26 252 158 32 126 176 178 222 72 17 186 111 123 34 188 152 210 185 87 104 248 215 234 251 51 63 209 95 221 33 171 248 29 74 
24 155 250 202 121 66 220 52 177 87 86 109 239 40 38 70 145 30 30 123 25 81 186 235 177 151 12 92 143 41 166 167 197 161 114 62 227 78 114 149 165 201 2 148 241 41 219 130 71 249 253 97 74 183 76 251 79 88 88 222 129 254 134 70 159 248 133 131 70 247 24 235 192 26 127 178 67 90 52 139 83 50 236 158 233 56 153 56 144 241 23 17 240 157 88 143 149 221 18 219 212 42 198 149 69 69 71 136 160 123 19 243 173 255 145 151 55 43 207 199 28 230 217 12 131 49 156 24 14 174 243 226 217 185 119 30 255 190 166 159 58 186 146 231 185 36 126 241 79 78 
184 107 52 145 120 184 194 20 208 208 194 196 179 155 125 42 185 124 233 96 27 35 26 174 10 211 210 137 196 33 215 125 140 11 14 4 195 209 24 148 161 219 88 84 118 213 127 48 82 104 144 109 139 170 27 149 125 237 30 66 14 245 191 155 1 205 159 196 158 184 88 64 147 176 148 9 134 19 57 216 123 201 69 6 115 97 156 241 78 186 51 93 176 242 248 177 191 151 117 94 79 206 158 226 126 50 236 4 70 37 220 193 239 34 200 98 131 100 83 209 30 134 46 206 120 38 127 56 190 245 150 13 195 52 240 65 102 220 70 172 1 34 110 240 68 54 83 199 154 166 
153 184 45 199 135 165 238 6 221 172 251 115 185 190 167 169 0 14 133 70 186 135 104 40 119 173 94 202 116 248 113 13 177 158 213 56 67 195 62 33 111 58 148 40 248 60 210 248 74 87 62 4 222 167 45 86 84 139 32 200 132 145 214 53 47 171 109 115 110 171 148 221 229 40 5 222 100 215 214 174 47 21 179 13 188 224 99 16 107 132 216 239 21 174 36 69 89 145 184 199 61 76 164 34 116 170 0 217 129 215 135 176 236 58 190 168 26 33 184 134 165 144 117 187 63 154 0 152 43 184 96 104 4 4 139 120 174 139 81 48 98 217 224 78 19 158 246 46 192 174 
180 101 63 41 32 126 195 32 22 239 216 118 87 220 123 226 85 41 110 166 89 208 127 58 31 147 216 21 193 152 196 117 254 3 158 30 129 98 63 151 81 23 14 168 244 137 139 73 178 249 239 12 201 111 70 232 2 30 254 195 183 194 56 181 197 214 211 70 56 18 221 137 42 235 50 30 116 189 103 39 182 86 51 127 197 121 104 199 151 102 138 78 40 194 3 237 153 215 51 209 233 16 91 19 252 141 49 112 74 152 151 0 239 202 127 180 67 231 124 219 77 6 41 117 201 45 98 98 4 149 51 237 166 142 1 162 27 50 18 101 203 170 101 186 116 229 110 184 204 234 
147 26 241 188 143 186 233 242 28 237 135 79 219 45 222 220 207 249 14 226 95 217 140 196 147 0 169 2 184 118 236 75 144 221 8 31 151 241 17 179 223 153 3 186 198 225 150 150 218 164 120 57 126 4 254 17 4 167 19 189 29 0 8 173 221 16 205 117 2 222 40 225 119 43 155 62 12 49 212 231 213 76 32 83 80 30 101 84 198 120 17 227 120 26 145 86 42 94 203 44 60 243 13 180 31 168 242 43 217 198 18 175 18 51 2 98 81 103 182 23 224 200 251 88 226 140 174 12 234 121 57 38 109 70 218 140 239 204 183 200 146 202 119 164 253 122 6 78 225 189 
102 193 133 97 26 103 237 200 115 215 66 172 253 175 243 216 59 226 164 242 170 55 188 34 219 185 156 226 8 125 159 110 63 36 207 89 139 188 33 254 147 99 171 144 18 158 104 77 128 13 64 42 68 252 76 31 182 232 1 190 102 160 44 165 196 251 254 79 183 31 78 74 131 249 218 149 151 67 227 23 80 35 65 148 31 142 179 213 118 181 147 220 85 191 129 26 186 127 105 113 159 183 187 34 176 150 183 71 217 154 94 41 189 160 189 221 46 112 178 164 37 70 129 123 5 2 149 192 130 254 49 33 182 237 67 102 131 250 174 92 149 12 133 82 172 66 47 218 178 226 
127 216 40 0 83 45 2 232 237 132 230 31 165 156 12 232 3 143 227 177 235 120 189 112 202 106 178 250 68 100 220 195 60 4 195 143 49 198 119 31 74 94 62 240 250 74 216 253 217 187 174 196 51 108 52 254 214 230 248 26 74 212 222 135 216 161 22 9 103 142 40 178 236 102 162 230 176 122 228 137 54 146 77 105 254 129 103 212 103 95 239 178 51 205 57 11 110 79 21 214 221 61 136 201 164 42 176 84 164 148 222 218 38 43 68 37 173 171 249 20 11 232 198 62 181 255 74 36 79 95 250 44 156 130 246 64 172 166 149 80 58 115 43 96 158 111 133 75 26 127 
96 37 103 38 100 29 38 174 65 117 13 59 161 169 189 151 234 105 61 127 185 119 242 228 216 144 83 93 220 110 220 60 147 68 98 247 97 136 165 162 253 178 221 159 92 154 54 70 3 116 197 188 235 183 161 195 71 244 33 35 98 253 95 246 65 194 237 162 74 147 68 72 69 33 231 161 187 29 231 190 145 172 123 125 99 28 64 171 16 97 206 115 95 46 105 160 240 86 67 58 233 135 130 47 169 105 208 100 135 184 35 24 100 158 149 200 186 214 115 202 55 65 61 150 111 166 55 95 253 122 154 230 1 28 21 170 134 230 15 13 158 50 37 2 208 187 202 138 145 61 
84 200 127 146 95 238 56 150 78 53 16 232 28 17 4 49 188 138 23 203 151 181 253 189 184 205 120 130 87 9 192 171 209 63 61 48 45 118 198 123 171 214 99 199 232 104 249 164 242 16 111 138 198 108 71 126 57 191 0 144 200 192 59 153 255 121 202 45 239 144 168 154 103 12 98 79 116 91 243 102 107 98 240 49 206 55 175 7 246 176 151 190 112 210 88 112 75 34 157 58 178 69 213 25 81 55 104 197 146 91 44 253 189 28 47 139 84 222 146 74 142 41 9 255 252 97 111 71 131 12 130 53 81 87 79 163 142 183 104 32 19 148 29 208 177 76 92 5 43 238 
79 185 24 88 184 20 185 39 91 60 51 221 114 133 52 193 40 194 120 144 226 139 37 0 92 214 76 184 219 119 166 42 49 190 131 233 210 60 17 46 121 68 11 235 201 64 172 241 2 36 130 229 176 167 229 12 125 49 196 88 169 106 130 218 41 5 195 251 66 212 41 187 25 53 166 226 117 82 212 119 118 86 92 38 253 65 50 122 115 246 210 28 97 84 246 138 90 185 133 156 142 175 87 167 228 253 137 89 79 93 208 197 179 45 236 176 110 30 42 225 21 252 253 118 81 243 0 171 173 133 71 59 52 158 226 24 155 107 113 234 201 66 175 124 111 155 45 221 186 87 
191 207 84 188 69 165 176 69 80 93 202 151 152 255 53 122 23 208 229 137 186 174 203 105 43 58 5 88 23 191 175 214 142 3 147 211 168 67 24 248 160 226 143 56 225 196 178 249 148 151 130 78 70 77 184 113 135 189 201 158 124 120 117 10 124 8 221 36 75 245 29 235 215 172 35 185 113 213 178 5 108 52 84 178 129 12 35 8 201 236 166 69 101 27 79 225 35 44 5 110 33 34 89 248 207 124 177 64 81 99 69 190 151 153 112 24 165 148 32 110 128 199 179 229 226 2 198 6 46 204 116 79 238 206 72 189 74 249 253 156 93 67 90 244 220 202 13 130 94 45 
